<svg xmlns="http://www.w3.org/2000/svg" version="1.1" xmlns:xlink="http://www.w3.org/1999/xlink" width="512" height="512" x="0" y="0" viewBox="0 0 682.667 682.667" style="enable-background:new 0 0 512 512" xml:space="preserve" class=""><g><defs><clipPath id="a" clipPathUnits="userSpaceOnUse"><path d="M0 512h512V0H0Z" fill="#333333" opacity="1" data-original="#000000" class=""></path></clipPath></defs><g clip-path="url(#a)" transform="matrix(1.33333 0 0 -1.33333 0 682.667)"><path d="M0 0v-237.36c0-24.53-19.89-44.42-44.42-44.42h-69.74v50.75c0 8.26-6.69 14.95-14.95 14.95h-234.43c-8.26 0-14.95-6.69-14.95-14.95v-50.75h-69.09c-24.53 0-44.42 19.89-44.42 44.42V0c0 25.38 20.57 45.95 45.95 45.95h11.75c15.05 0 29.03-7.82 36.89-20.66l9.38-15.3 9.37 15.3a43.265 43.265 0 0 0 36.89 20.66h.7a43.27 43.27 0 0 0 36.9-20.66l9.37-15.3 9.38 15.3a43.24 43.24 0 0 0 36.89 20.66h3.14a43.27 43.27 0 0 0 36.9-20.66l9.37-15.3 9.38 15.3a43.24 43.24 0 0 0 36.89 20.66 43.24 43.24 0 0 0 36.89-20.66l9.37-15.29 9.35 15.27a43.253 43.253 0 0 0 36.9 20.68h14.39C-20.57 45.95 0 25.38 0 0" style="fill-opacity:1;fill-rule:nonzero;stroke:none" transform="translate(502 406.545)" fill="#eaf0f0" data-original="#eaf0f0" class=""></path><path d="M0 0h-365.711c-12.483 0-22.602 10.12-22.602 22.603 0 12.483 10.119 22.602 22.602 22.602H0c12.482 0 22.603-10.119 22.603-22.602S12.482 0 0 0" style="fill-opacity:1;fill-rule:nonzero;stroke:none" transform="translate(438.356 315.311)" fill="#f6ab31" data-original="#bdd3dd" class="" opacity="1"></path><path d="M0 0c-8.256 0-14.949 6.693-14.949 14.949v101.068c0 8.256 6.693 14.949 14.949 14.949h117.61V0Z" style="fill-opacity:1;fill-rule:nonzero;stroke:none" transform="translate(138.455 59.502)" fill="#d32f2f" data-original="#ff7e96" class="" opacity="1"></path><path d="M0 0h-116.826v130.965H0c8.256.001 14.949-6.693 14.949-14.948V14.949C14.949 6.693 8.256 0 0 0" style="fill-opacity:1;fill-rule:nonzero;stroke:none" transform="translate(372.89 59.502)" fill="#00a8e8" data-original="#00d5f5" class="" opacity="1"></path><path d="M0 0v39.555" style="stroke-width:20;stroke-linecap:round;stroke-linejoin:round;stroke-miterlimit:10;stroke-dasharray:none;stroke-opacity:1" transform="translate(188.027 104.953)" fill="none" stroke="#333333" stroke-width="20" stroke-linecap="round" stroke-linejoin="round" stroke-miterlimit="10" stroke-dasharray="none" stroke-opacity="" data-original="#000000" class="" opacity="1"></path><path d="M0 0h-39.555" style="stroke-width:20;stroke-linecap:round;stroke-linejoin:round;stroke-miterlimit:10;stroke-dasharray:none;stroke-opacity:1" transform="translate(207.805 124.73)" fill="none" stroke="#333333" stroke-width="20" stroke-linecap="round" stroke-linejoin="round" stroke-miterlimit="10" stroke-dasharray="none" stroke-opacity="" data-original="#000000" class="" opacity="1"></path><path d="M0 0h-40.813" style="stroke-width:20;stroke-linecap:round;stroke-linejoin:round;stroke-miterlimit:10;stroke-dasharray:none;stroke-opacity:1" transform="translate(344.35 124.731)" fill="none" stroke="#333333" stroke-width="20" stroke-linecap="round" stroke-linejoin="round" stroke-miterlimit="10" stroke-dasharray="none" stroke-opacity="" data-original="#000000" class="" opacity="1"></path><path d="M0 0c-8.256 0-14.949 6.693-14.949 14.949v101.068c0 8.256 6.693 14.949 14.949 14.949h117.61V0Z" style="stroke-width:20;stroke-linecap:round;stroke-linejoin:round;stroke-miterlimit:10;stroke-dasharray:none;stroke-opacity:1" transform="translate(138.455 59.502)" fill="none" stroke="#333333" stroke-width="20" stroke-linecap="round" stroke-linejoin="round" stroke-miterlimit="10" stroke-dasharray="none" stroke-opacity="" data-original="#000000" class="" opacity="1"></path><path d="M0 0h-116.826v130.965H0c8.256.001 14.949-6.693 14.949-14.948V14.949C14.949 6.693 8.256 0 0 0Z" style="stroke-width:20;stroke-linecap:round;stroke-linejoin:round;stroke-miterlimit:10;stroke-dasharray:none;stroke-opacity:1" transform="translate(372.89 59.502)" fill="none" stroke="#333333" stroke-width="20" stroke-linecap="round" stroke-linejoin="round" stroke-miterlimit="10" stroke-dasharray="none" stroke-opacity="" data-original="#000000" class="" opacity="1"></path><path d="M0 0v-66.467c0-24.531-19.887-44.417-44.417-44.417h-69.743" style="stroke-width:20;stroke-linecap:round;stroke-linejoin:round;stroke-miterlimit:10;stroke-dasharray:none;stroke-opacity:1" transform="translate(502 235.652)" fill="none" stroke="#333333" stroke-width="20" stroke-linecap="round" stroke-linejoin="round" stroke-miterlimit="10" stroke-dasharray="none" stroke-opacity="" data-original="#000000" class="" opacity="1"></path><path d="M0 0a129.164 129.164 0 0 0 17.962 51.092l12.372 20.212a43.27 43.27 0 0 0 36.903 20.678h14.385c25.381 0 45.955-20.574 45.955-45.955v-81.46" style="stroke-width:20;stroke-linecap:round;stroke-linejoin:round;stroke-miterlimit:10;stroke-dasharray:none;stroke-opacity:1" transform="translate(374.423 360.516)" fill="none" stroke="#333333" stroke-width="20" stroke-linecap="round" stroke-linejoin="round" stroke-miterlimit="10" stroke-dasharray="none" stroke-opacity="" data-original="#000000" class="" opacity="1"></path><path d="M0 0a129.162 129.162 0 0 0 17.985 51.107l12.382 20.211a43.27 43.27 0 0 0 73.789 0l12.383-20.211a129.169 129.169 0 0 0 19.026-67.475v-49.988c0-12.17-9.865-22.035-22.035-22.035-12.169 0-22.034 9.865-22.034 22.035v21.15" style="stroke-width:20;stroke-linecap:round;stroke-linejoin:round;stroke-miterlimit:10;stroke-dasharray:none;stroke-opacity:1" transform="translate(281.889 360.517)" fill="none" stroke="#333333" stroke-width="20" stroke-linecap="round" stroke-linejoin="round" stroke-miterlimit="10" stroke-dasharray="none" stroke-opacity="" data-original="#000000" class="" opacity="1"></path><path d="M0 0a129.172 129.172 0 0 0 17.985 51.108l12.383 20.211a43.268 43.268 0 0 0 36.894 20.664h3.143a43.268 43.268 0 0 0 36.894-20.664l12.382-20.211a129.151 129.151 0 0 0 19.027-67.475v-49.988c0-12.17-9.865-22.035-22.035-22.035-12.169 0-22.034 9.865-22.034 22.035v21.151" style="stroke-width:20;stroke-linecap:round;stroke-linejoin:round;stroke-miterlimit:10;stroke-dasharray:none;stroke-opacity:1" transform="translate(186.208 360.516)" fill="none" stroke="#333333" stroke-width="20" stroke-linecap="round" stroke-linejoin="round" stroke-miterlimit="10" stroke-dasharray="none" stroke-opacity="" data-original="#000000" class="" opacity="1"></path><path d="M0 0a129.162 129.162 0 0 0 17.985 51.107l12.383 20.211a43.266 43.266 0 0 0 36.894 20.664h.699a43.266 43.266 0 0 0 36.894-20.664l12.383-20.211a129.16 129.16 0 0 0 19.026-67.475v-49.988c0-12.17-9.865-22.035-22.034-22.035h-.001c-12.168 0-22.034 9.865-22.034 22.035v21.151" style="stroke-width:20;stroke-linecap:round;stroke-linejoin:round;stroke-miterlimit:10;stroke-dasharray:none;stroke-opacity:1" transform="translate(92.972 360.517)" fill="none" stroke="#333333" stroke-width="20" stroke-linecap="round" stroke-linejoin="round" stroke-miterlimit="10" stroke-dasharray="none" stroke-opacity="" data-original="#000000" class="" opacity="1"></path><path d="M0 0h-69.089c-24.531 0-44.417 19.886-44.417 44.417v237.359c0 25.38 20.574 45.955 45.955 45.955h11.741a43.27 43.27 0 0 0 36.895-20.664l12.382-20.211a129.16 129.16 0 0 0 19.027-67.475v-49.988c0-12.17-9.866-22.035-22.035-22.035s-22.035 9.865-22.035 22.035v21.151" style="stroke-width:20;stroke-linecap:round;stroke-linejoin:round;stroke-miterlimit:10;stroke-dasharray:none;stroke-opacity:1" transform="translate(123.506 124.768)" fill="none" stroke="#333333" stroke-width="20" stroke-linecap="round" stroke-linejoin="round" stroke-miterlimit="10" stroke-dasharray="none" stroke-opacity="" data-original="#000000" class="" opacity="1"></path><path d="M0 0h-365.711c-12.483 0-22.602 10.12-22.602 22.603 0 12.483 10.119 22.602 22.602 22.602H0c12.482 0 22.603-10.119 22.603-22.602S12.482 0 0 0Z" style="stroke-width:20;stroke-linecap:round;stroke-linejoin:round;stroke-miterlimit:10;stroke-dasharray:none;stroke-opacity:1" transform="translate(438.356 315.311)" fill="none" stroke="#333333" stroke-width="20" stroke-linecap="round" stroke-linejoin="round" stroke-miterlimit="10" stroke-dasharray="none" stroke-opacity="" data-original="#000000" class="" opacity="1"></path><path d="M0 0v0" style="stroke-width:20;stroke-linecap:round;stroke-linejoin:round;stroke-miterlimit:10;stroke-dasharray:none;stroke-opacity:1" transform="translate(502 279.125)" fill="none" stroke="#333333" stroke-width="20" stroke-linecap="round" stroke-linejoin="round" stroke-miterlimit="10" stroke-dasharray="none" stroke-opacity="" data-original="#000000" class="" opacity="1"></path></g></g></svg>