<svg xmlns="http://www.w3.org/2000/svg" version="1.1" xmlns:xlink="http://www.w3.org/1999/xlink" width="512" height="512" x="0" y="0" viewBox="0 0 128 128" style="enable-background:new 0 0 512 512" xml:space="preserve" class=""><g><circle cx="74.742" cy="40.927" r="16.742" fill="#ef5350" opacity="1" data-original="#fb637b" class=""></circle><path fill="#fbd62e" d="M74.742 48.669a7.742 7.742 0 1 1 7.742-7.742 7.751 7.751 0 0 1-7.742 7.742z" opacity="1" data-original="#fbd62e" class=""></path><circle cx="41.258" cy="87.444" r="16.742" fill="#ef5350" opacity="1" data-original="#fb637b" class=""></circle><path fill="#fbd62e" d="M41.258 95.186A7.742 7.742 0 1 1 49 87.444a7.751 7.751 0 0 1-7.742 7.742z" opacity="1" data-original="#fbd62e" class=""></path><path fill="#ef5350" d="M79.484 103.808h24V121.5h-24z" opacity="1" data-original="#fb637b" class=""></path><rect width="115" height="6" x="6.5" y="6.5" fill="#333333" rx="3" opacity="0.9019607843137255" data-original="#385b60" class=""></rect><g fill="#160820"><path d="M71.614 31.964a1.75 1.75 0 0 0 1.157 3.3 5.992 5.992 0 1 1-4.021 5.659 6.019 6.019 0 0 1 .083-.995 1.751 1.751 0 0 0-3.453-.578 9.631 9.631 0 0 0-.13 1.573 9.488 9.488 0 1 0 6.364-8.963zM41.258 77.952a9.492 9.492 0 1 0 9.492 9.492 9.5 9.5 0 0 0-9.492-9.492zm0 15.484a5.992 5.992 0 1 1 5.992-5.992 6 6 0 0 1-5.992 5.992zM99.234 115.026v-5a1.75 1.75 0 0 0-3.5 0v5a1.75 1.75 0 0 0 3.5 0z" fill="#333333" opacity="1" data-original="#160820" class=""></path><path d="M118.5 4.75H64.875a1.75 1.75 0 0 0 0 3.5H118.5a1.25 1.25 0 0 1 0 2.5H9.5a1.25 1.25 0 0 1 0-2.5h35.625a1.75 1.75 0 0 0 0-3.5H9.5a4.75 4.75 0 0 0 0 9.5h13.27v73.19a16.706 16.706 0 0 0 .16 2.36 18.479 18.479 0 0 0 36.66 0 16.706 16.706 0 0 0 .16-2.36V51.71a18.432 18.432 0 0 0 29.984 0v44.751a6.256 6.256 0 0 0-4.48 5.6h-5.77a1.75 1.75 0 0 0-1.75 1.75v4.689a1.75 1.75 0 0 0 3.5 0v-2.942h20.5v14.192h-20.5v-1.833a1.75 1.75 0 0 0-3.5 0v3.583a1.751 1.751 0 0 0 1.75 1.75h24a1.751 1.751 0 0 0 1.75-1.75v-17.692a1.75 1.75 0 0 0-1.75-1.75h-5.77a6.256 6.256 0 0 0-4.48-5.6V40.927a18.514 18.514 0 0 0-16.742-18.4V14.25H118.5a4.75 4.75 0 0 0 0-9.5zm-24.3 97.281h-5.433a2.75 2.75 0 0 1 5.434 0zm-52.941.409a15 15 0 1 1 14.99-15 15.01 15.01 0 0 1-14.989 15zm48.475-61.513a14.992 14.992 0 1 1-14.992-14.992 15.009 15.009 0 0 1 14.992 14.992zm-16.742-18.4a18.514 18.514 0 0 0-16.742 18.4v35.7a18.469 18.469 0 0 0-29.98 0V14.25h46.722z" fill="#333333" opacity="1" data-original="#160820" class=""></path><path d="M52 8.25h5a1.75 1.75 0 0 0 0-3.5h-5a1.75 1.75 0 0 0 0 3.5z" fill="#333333" opacity="1" data-original="#160820" class=""></path></g></g></svg>