<?xml version="1.0" encoding="UTF-8" standalone="no"?>
<!DOCTYPE svg PUBLIC "-//W3C//DTD SVG 1.1//EN" "http://www.w3.org/Graphics/SVG/1.1/DTD/svg11.dtd">
<!-- נוצר באמצעות Microsoft Visio, ‏SVG Export signal-proccesing.svg Page-1 -->
<svg xmlns="http://www.w3.org/2000/svg" xmlns:xlink="http://www.w3.org/1999/xlink" xmlns:ev="http://www.w3.org/2001/xml-events"
		xmlns:v="http://schemas.microsoft.com/visio/2003/SVGExtensions/" width="1.24084in" height="0.996998in"
		viewBox="0 0 89.3406 71.7839" xml:space="preserve" color-interpolation-filters="sRGB" class="st4">
	<v:documentProperties v:langID="1037" v:metric="true" v:viewMarkup="false">
		<v:userDefs>
			<v:ud v:nameU="msvNoAutoConnect" v:val="VT0(1):26"/>
		</v:userDefs>
	</v:documentProperties>

	<style type="text/css">
	<![CDATA[
		.st1 {stroke:#00aaea;stroke-linecap:round;stroke-linejoin:round;stroke-width:0.5}
		.st2 {stroke:#ffffff;stroke-linecap:round;stroke-linejoin:round;stroke-width:1.75}
		.st3 {stroke:#c00000;stroke-linecap:round;stroke-linejoin:round;stroke-width:0.75}
		.st4 {fill:none;fill-rule:evenodd;font-size:12px;overflow:visible;stroke-linecap:square;stroke-miterlimit:3}
	]]>
	</style>

	<g v:mID="0" v:index="1" v:groupContext="foregroundPage">
		<title>דף-1</title>
		<v:pageProperties v:drawingScale="0.0393701" v:pageScale="0.0393701" v:drawingUnits="24" v:shadowOffsetX="8.50394"
				v:shadowOffsetY="-8.50394"/>
		<g id="group1-1" transform="translate(18.875,-18.25)" v:mID="1" v:groupContext="group">
			<title>גיליון.1</title>
			<g id="shape2-2" v:mID="2" v:groupContext="shape" transform="translate(73.2012,53.4333) rotate(90)">
				<title>גיליון.2</title>
				<path d="M0 71.78 L2.76 71.78" class="st1"/>
			</g>
			<g id="shape3-5" v:mID="3" v:groupContext="shape" transform="translate(76.0358,52.3889) rotate(90)">
				<title>גיליון.3</title>
				<path d="M0 71.78 L6.71 71.78" class="st1"/>
			</g>
			<g id="shape4-8" v:mID="4" v:groupContext="shape" transform="translate(78.8705,51.1954) rotate(90)">
				<title>גיליון.4</title>
				<path d="M0 71.78 L7.24 71.78" class="st1"/>
			</g>
			<g id="shape5-11" v:mID="5" v:groupContext="shape" transform="translate(81.7051,50.4494) rotate(90)">
				<title>גיליון.5</title>
				<path d="M0 71.78 L8.43 71.78" class="st1"/>
			</g>
			<g id="shape6-14" v:mID="6" v:groupContext="shape" transform="translate(84.5398,49.1813) rotate(90)">
				<title>גיליון.6</title>
				<path d="M0 71.78 L10.91 71.78" class="st1"/>
			</g>
			<g id="shape7-17" v:mID="7" v:groupContext="shape" transform="translate(87.3744,46.4213) rotate(90)">
				<title>גיליון.7</title>
				<path d="M0 71.78 L16.63 71.78" class="st1"/>
			</g>
			<g id="shape8-20" v:mID="8" v:groupContext="shape" transform="translate(90.2091,42.3185) rotate(90)">
				<title>גיליון.8</title>
				<path d="M0 71.78 L23.8 71.78" class="st1"/>
			</g>
			<g id="shape9-23" v:mID="9" v:groupContext="shape" transform="translate(93.0437,38.0665) rotate(90)">
				<title>גיליון.9</title>
				<path d="M0 71.78 L32.3 71.78" class="st1"/>
			</g>
			<g id="shape10-26" v:mID="10" v:groupContext="shape" transform="translate(95.8784,36.5) rotate(90)">
				<title>גיליון.10</title>
				<path d="M0 71.78 L35.28 71.78" class="st1"/>
			</g>
			<g id="shape11-29" v:mID="11" v:groupContext="shape" transform="translate(98.713,40.9012) rotate(90)">
				<title>גיליון.11</title>
				<path d="M0 71.78 L28.2 71.78" class="st1"/>
			</g>
			<g id="shape12-32" v:mID="12" v:groupContext="shape" transform="translate(101.548,43.6612) rotate(90)">
				<title>גיליון.12</title>
				<path d="M0 71.78 L22.38 71.78" class="st1"/>
			</g>
			<g id="shape13-35" v:mID="13" v:groupContext="shape" transform="translate(104.382,48.0624) rotate(90)">
				<title>גיליון.13</title>
				<path d="M0 71.78 L12.38 71.78" class="st1"/>
			</g>
			<g id="shape14-38" v:mID="14" v:groupContext="shape" transform="translate(107.217,49.6289) rotate(90)">
				<title>גיליון.14</title>
				<path d="M0 71.78 L9.62 71.78" class="st1"/>
			</g>
			<g id="shape15-41" v:mID="15" v:groupContext="shape" transform="translate(110.052,48.0624) rotate(90)">
				<title>גיליון.15</title>
				<path d="M0 71.78 L12.23 71.78" class="st1"/>
			</g>
			<g id="shape16-44" v:mID="16" v:groupContext="shape" transform="translate(112.886,47.764) rotate(90)">
				<title>גיליון.16</title>
				<path d="M0 71.78 L14.17 71.78" class="st1"/>
			</g>
			<g id="shape17-47" v:mID="17" v:groupContext="shape" transform="translate(115.721,51.3446) rotate(90)">
				<title>גיליון.17</title>
				<path d="M0 71.78 L5.82 71.78" class="st1"/>
			</g>
			<g id="shape18-50" v:mID="18" v:groupContext="shape" transform="translate(118.556,52.4635) rotate(90)">
				<title>גיליון.18</title>
				<path d="M0 71.78 L4.1 71.78" class="st1"/>
			</g>
			<g id="shape19-53" v:mID="19" v:groupContext="shape" transform="translate(121.39,54.2538) rotate(90)">
				<title>גיליון.19</title>
				<path d="M0 71.78 L2.31 71.78" class="st1"/>
			</g>
			<g id="shape20-56" v:mID="20" v:groupContext="shape" transform="translate(-1.97134,-12.6542) rotate(-1.57366)">
				<title>גיליון.20</title>
				<path d="M0 71.78 C8.5 72.02 13.47 70.11 16.99 65.53 C18.58 63.46 19.88 60.85 21.43 58.12 C22.21 56.74 23.07 55.34
							 23.71 55 C24.36 54.66 24.81 55.38 25.22 56.38 C26.06 58.37 26.78 61.44 27.52 64.39 C28.03 66.42 28.56
							 68.4 29.86 69.34 C31.3 70.38 33.69 70.15 35.65 68.52 C37.09 67.32 38.3 65.37 39.17 64.82 C40.51 63.96
							 41.04 66.43 42.75 68.25 C43.85 69.43 45.45 70.33 46.42 70.87 C47.81 71.65 47.93 71.68 51.61 71.78"
						class="st2"/>
			</g>
			<g id="shape21-59" v:mID="21" v:groupContext="shape" transform="translate(-1.97134,-12.6542) rotate(-1.57366)">
				<title>גיליון.21</title>
				<path d="M0 71.78 C8.5 72.02 13.47 70.11 16.99 65.53 C18.58 63.46 19.88 60.85 21.43 58.12 C22.21 56.74 23.07 55.34
							 23.71 55 C24.36 54.66 24.81 55.38 25.22 56.38 C26.06 58.37 26.78 61.44 27.52 64.39 C28.03 66.42 28.56
							 68.4 29.86 69.34 C31.3 70.38 33.69 70.15 35.65 68.52 C37.09 67.32 38.3 65.37 39.17 64.82 C40.51 63.96
							 41.04 66.43 42.75 68.25 C43.85 69.43 45.45 70.33 46.42 70.87 C47.81 71.65 47.93 71.68 51.61 71.78"
						class="st3"/>
			</g>
		</g>
	</g>
</svg>
