<svg xmlns="http://www.w3.org/2000/svg" version="1.1" xmlns:xlink="http://www.w3.org/1999/xlink" width="512" height="512" x="0" y="0" viewBox="0 0 512 512" style="enable-background:new 0 0 512 512" xml:space="preserve" class=""><g><path fill="#999999" d="M234.648 407.063H73.434c-.778 0-1.559-.012-2.325-.032-19.144-.605-37.023-8.508-50.37-22.254C7.366 371 0 352.836 0 333.63V85.355c0-38.46 31.293-69.753 69.754-69.753h87.45c4.233 0 7.663 3.43 7.663 7.664s-3.43 7.668-7.664 7.668h-87.45c-30.007 0-54.421 24.414-54.421 54.421V333.63c0 15.195 5.828 29.57 16.406 40.469 10.563 10.879 24.707 17.132 39.832 17.609.602.016 1.23.027 1.864.027h161.214a7.665 7.665 0 1 1 0 15.329zM438.555 407.063h-168.82a7.664 7.664 0 0 1 0-15.329h168.82c1.625 0 3.226-.07 4.898-.21 14.473-1.208 27.887-7.762 37.785-18.465 9.95-10.762 15.43-24.762 15.43-39.43V85.355c0-30.007-24.414-54.421-54.422-54.421H345.07a7.665 7.665 0 1 1 0-15.332h97.176c38.461 0 69.754 31.293 69.754 69.753V333.63c0 18.535-6.926 36.234-19.504 49.836-12.508 13.523-29.469 21.812-47.762 23.336-2.07.176-4.148.261-6.18.261zm0 0" opacity="1" data-original="#d9d8db" class=""></path><path fill="#333333" d="M234.645 431.594a7.668 7.668 0 0 1-7.665-7.668v-49.059a7.667 7.667 0 0 1 15.333 0v49.059a7.669 7.669 0 0 1-7.668 7.668zM269.734 458.617a7.668 7.668 0 0 1-7.664-7.668V347.844a7.664 7.664 0 0 1 7.664-7.664 7.665 7.665 0 0 1 7.668 7.664v103.11a7.668 7.668 0 0 1-7.668 7.663zm0 0" opacity="1" data-original="#61657c" class=""></path><path fill="#2e7d32" d="M444.098 399.398c0 32.793-26.586 59.38-59.383 59.38-32.793 0-59.38-26.587-59.38-59.38 0-32.796 26.587-59.378 59.38-59.378 32.797 0 59.383 26.582 59.383 59.378zm0 0" opacity="0.7215686274509804" data-original="#2ad18d" class=""></path><path fill="#2e7d32" d="M384.715 340.016a59.274 59.274 0 0 0-18.914 3.097c23.515 7.899 40.465 30.106 40.465 56.285 0 26.176-16.95 48.383-40.465 56.286a59.272 59.272 0 0 0 18.914 3.093c32.797 0 59.383-26.586 59.383-59.379 0-32.796-26.586-59.382-59.383-59.382zm0 0" opacity="1" data-original="#28b284" class=""></path><path fill="#ffffff" d="M384.715 428.613a7.662 7.662 0 0 1-7.664-7.664v-43.101c0-4.235 3.43-7.664 7.664-7.664s7.664 3.43 7.664 7.664v43.101a7.662 7.662 0 0 1-7.664 7.664zm0 0" opacity="1" data-original="#ffffff" class=""></path><path fill="#ffffff" d="M406.266 407.063h-43.102a7.664 7.664 0 0 1 0-15.329h43.102a7.662 7.662 0 0 1 7.664 7.664 7.662 7.662 0 0 1-7.664 7.664zm0 0" opacity="1" data-original="#ffffff" class=""></path><path fill="#d32f2f" d="M190.09 399.398c0 32.793-26.586 59.38-59.383 59.38-32.793 0-59.379-26.587-59.379-59.38 0-32.796 26.586-59.378 59.379-59.378 32.797 0 59.383 26.582 59.383 59.378zm0 0" opacity="1" data-original="#ff3b63" class=""></path><path fill="#aa1b1b" d="M130.707 340.016a59.292 59.292 0 0 0-18.914 3.097c23.516 7.899 40.465 30.106 40.465 56.285 0 26.176-16.95 48.383-40.465 56.286a59.272 59.272 0 0 0 18.914 3.093c32.797 0 59.383-26.586 59.383-59.379 0-32.796-26.586-59.382-59.383-59.382zm0 0" opacity="1" data-original="#bc2e50" class=""></path><path fill="#ffffff" d="M152.258 407.063H109.16a7.665 7.665 0 1 1 0-15.329h43.098a7.662 7.662 0 0 1 7.664 7.664 7.662 7.662 0 0 1-7.664 7.664zm0 0" opacity="1" data-original="#ffffff" class=""></path><path fill="#c75824" d="M171.59 47.117c-5.309 0-10.137-2.664-12.969-7.176l-7.91-12.597a7.667 7.667 0 0 1 12.984-8.153l7.91 12.598 13.63-24.027C187.995 2.902 192.976 0 198.565 0c5.586 0 10.57 2.902 13.329 7.762l13.308 23.441 13.305-23.441C241.266 2.902 246.246 0 251.836 0c5.59 0 10.57 2.902 13.332 7.762l13.305 23.441L291.78 7.762C294.54 2.902 299.52 0 305.11 0c5.586 0 10.57 2.898 13.329 7.758l13.312 23.449 6.652-11.727a7.665 7.665 0 0 1 13.332 7.57l-6.656 11.727c-2.758 4.86-7.742 7.762-13.328 7.762-5.59 0-10.57-2.902-13.328-7.762l-13.317-23.449-13.304 23.445c-2.758 4.86-7.742 7.762-13.328 7.762-5.59 0-10.57-2.902-13.332-7.762l-13.305-23.445-13.305 23.445c-2.758 4.856-7.742 7.758-13.332 7.758-5.586 0-10.57-2.898-13.328-7.758l-13.309-23.445-13.632 24.027c-2.688 4.735-7.543 7.637-12.989 7.758-.117.004-.234.004-.351.004zM288.855 185.8c-5.308 0-10.136-2.66-12.968-7.175l-7.91-12.598a7.664 7.664 0 0 1 2.414-10.566c3.586-2.254 8.316-1.168 10.57 2.414l7.906 12.598 13.633-24.024c2.758-4.86 7.742-7.762 13.332-7.762 5.586-.003 10.57 2.899 13.328 7.758l13.309 23.446 13.3-23.446c2.762-4.86 7.747-7.761 13.333-7.761 5.586.004 10.57 2.902 13.328 7.761l13.308 23.446 13.305-23.446c2.758-4.86 7.742-7.761 13.328-7.761 5.59 0 10.57 2.902 13.332 7.761l13.313 23.446 6.652-11.723c2.09-3.684 6.766-4.969 10.45-2.883a7.669 7.669 0 0 1 2.878 10.453l-6.656 11.723c-2.758 4.86-7.738 7.762-13.328 7.762-5.586 0-10.57-2.903-13.328-7.762l-13.313-23.445-13.305 23.445c-2.757 4.855-7.742 7.758-13.328 7.758-5.59 0-10.57-2.899-13.332-7.758l-13.308-23.445-13.301 23.441c-2.762 4.86-7.742 7.762-13.332 7.762-5.586 0-10.57-2.903-13.328-7.762l-13.309-23.441-13.633 24.027c-2.687 4.734-7.543 7.637-12.988 7.758h-.352zm0 0" opacity="1" data-original="#ffb74d" class=""></path><g fill="#d9d8db"><path d="M271.758 169.617h-78.805c-4.234 0-7.664-3.43-7.664-7.664s3.43-7.668 7.664-7.668h78.805c4.23 0 7.664 3.434 7.664 7.668s-3.434 7.664-7.664 7.664zM63.875 169.617H8.668a7.665 7.665 0 1 1 0-15.332h55.207c4.234 0 7.664 3.434 7.664 7.668s-3.43 7.664-7.664 7.664zM504.336 169.617h-42a7.665 7.665 0 1 1 0-15.332h42c4.23 0 7.664 3.434 7.664 7.668s-3.434 7.664-7.664 7.664zM89.094 157.625a7.656 7.656 0 0 1-6.653-3.84 7.667 7.667 0 0 1 2.82-10.469l57.555-33.129a7.663 7.663 0 0 1 10.47 2.82 7.659 7.659 0 0 1-2.821 10.466L92.91 156.605a7.653 7.653 0 0 1-3.816 1.02zm0 0" fill="#999999" opacity="1" data-original="#d9d8db" class=""></path></g><path fill="#0a2472" d="M192.953 161.68c0 8.468-6.863 15.332-15.332 15.332-8.465 0-15.328-6.864-15.328-15.332 0-8.465 6.863-15.328 15.328-15.328 8.469 0 15.332 6.863 15.332 15.328zM94.535 161.68c0 8.468-6.863 15.332-15.328 15.332-8.469 0-15.332-6.864-15.332-15.332 0-8.465 6.863-15.328 15.332-15.328 8.465 0 15.328 6.863 15.328 15.328zm0 0" opacity="1" data-original="#00a5ff" class=""></path></g></svg>