<svg xmlns="http://www.w3.org/2000/svg" version="1.1" xmlns:xlink="http://www.w3.org/1999/xlink" width="512" height="512" x="0" y="0" viewBox="0 0 512 512" style="enable-background:new 0 0 512 512" xml:space="preserve" class=""><g><path fill="#e6e8e8" d="M376.84 273.02c-7.8 0-14.146 6.359-14.146 14.175v131.984a27.967 27.967 0 0 1 14.146-3.829h92.013V273.02z" opacity="1" data-original="#e6e8e8" class=""></path><path fill="#d7dddd" d="M334.519 273.02h-92.013v142.33h92.013a28.009 28.009 0 0 1 14.175 3.837V287.195c0-7.816-6.359-14.175-14.175-14.175z" opacity="1" data-original="#d7dddd" class=""></path><path fill="#d32f2f" d="M386.393 54.329c-40.217 0-72.937 32.732-72.937 72.965s32.719 72.937 72.937 72.937 72.964-32.719 72.964-72.937-32.731-72.965-72.964-72.965z" opacity="1" data-original="#fe646f" class=""></path><path fill="#dff6fd" d="M299.457 127.294c0-3.912.264-7.762.767-11.539h-99.415v29.878a7.001 7.001 0 0 1-3.503 6.064 207.904 207.904 0 0 1-17.728 9.146v10.967l7.179 13.266a7 7 0 0 1-12.314 6.663l-1.865-3.447-1.865 3.447a7 7 0 1 1-12.314-6.663l7.179-13.266v-5.304c-14.488 5.11-28.632 7.746-42.702 7.953h-.206c-24.116-.355-48.453-7.8-74.401-22.761a7.001 7.001 0 0 1-3.503-6.064v-29.878h-13.75c-4.971 0-9.016 4.032-9.016 8.987v206.618h185.359v-44.165a7 7 0 0 1 7-7h14.146v-14.175a7 7 0 0 1 7-7h99.013c8.431 0 16.004 3.727 21.171 9.615 5.163-5.888 12.727-9.615 21.15-9.615h29.878v-47.194a86.869 86.869 0 0 1-20.326 2.404c-47.937 0-86.937-39-86.937-86.937z" opacity="1" data-original="#dff6fd" class=""></path><path fill="#8ebac5" d="M22 373.906c0 4.956 4.044 8.987 9.016 8.987H207.36V345.36H22z" opacity="1" data-original="#8ebac5" class=""></path><path d="M497 280.195h-14.146V266.02a7 7 0 0 0-7-7h-55.135v-51.855c30.931-13.335 52.639-44.115 52.639-79.871 0-47.953-39.012-86.965-86.964-86.965-39.056 0-72.176 25.897-83.109 61.426h-101.02l30.594-10.562a7 7 0 0 0 .001-13.233L125.059 40.713a7 7 0 0 0-4.573 0L12.713 77.96a7 7 0 0 0 .002 13.233l30.586 10.562H31.016C18.325 101.755 8 112.067 8 124.742v249.164c0 12.675 10.325 22.987 23.016 22.987h140.249l-14.809 38.583h-45.929a7 7 0 0 0-7 7v22.195a7 7 0 0 0 7 7H497a7 7 0 0 0 7-7V287.195a7 7 0 0 0-7-7zM348.694 419.187a28.019 28.019 0 0 0-14.175-3.837h-92.013V273.02h92.013c7.816 0 14.175 6.359 14.175 14.175zM242.506 429.35h92.013c5.263 0 9.857 2.884 12.302 7.146H242.506zm226.348-14h-92.013a27.954 27.954 0 0 0-14.146 3.829V287.195c0-7.816 6.346-14.175 14.146-14.175h92.013zm0 14v7.146h-104.29c2.44-4.262 7.024-7.146 12.277-7.146zM386.393 54.329c40.233 0 72.964 32.732 72.964 72.965s-32.731 72.937-72.964 72.937-72.937-32.719-72.937-72.937 32.719-72.965 72.937-72.965zM58.765 107.096l61.722 21.315a7.016 7.016 0 0 0 4.57 0l40.52-13.99v37.157c-14.676 5.731-28.832 8.662-42.805 8.881-20.57-.322-41.546-6.516-64.007-18.913zm120.812 2.492 7.231-2.497v34.455a196.388 196.388 0 0 1-7.231 3.789v-35.748zm-56.804-54.853 86.358 29.838-36.354 12.551-47.395-19.044a7 7 0 1 0-5.22 12.99l32.418 13.026-29.808 10.291-86.336-29.815 86.336-29.838zm-91.757 61.02h13.75v29.878a7.001 7.001 0 0 0 3.503 6.064c25.948 14.961 50.285 22.406 74.401 22.761h.206c14.07-.207 28.213-2.842 42.702-7.953v5.304l-7.179 13.266a7 7 0 0 0 12.314 6.663l1.865-3.447 1.865 3.447a6.999 6.999 0 0 0 9.488 2.825 7.001 7.001 0 0 0 2.826-9.488l-7.179-13.266v-10.967a208.634 208.634 0 0 0 17.728-9.146 7.001 7.001 0 0 0 3.503-6.064v-29.878h99.415a87.346 87.346 0 0 0-.767 11.539c0 47.937 39 86.937 86.937 86.937 6.998 0 13.802-.836 20.326-2.404v47.194h-29.878c-8.423 0-15.987 3.727-21.15 9.615-5.168-5.888-12.74-9.615-21.171-9.615h-99.013a7 7 0 0 0-7 7v14.175h-14.146a7 7 0 0 0-7 7v44.165H22V124.742c0-4.956 4.044-8.987 9.016-8.987zM22 373.906V345.36h185.359v37.533H31.016c-4.971 0-9.016-4.032-9.016-8.987zm164.26 22.987h21.099v38.583h-35.908zm-68.733 52.583h89.833v8.195h-89.833zM490 457.671H221.359V294.195h7.146v149.301a7 7 0 0 0 7 7h240.348a7 7 0 0 0 7-7V294.195h7.146v163.476zM332.647 298.59a7 7 0 0 1-7 7h-62.362a7 7 0 1 1 0-14h62.362a7 7 0 0 1 7 7zm0 22.791a7 7 0 0 1-7 7h-62.362a7 7 0 1 1 0-14h62.362a7 7 0 0 1 7 7zm0 22.818a7 7 0 0 1-7 7h-62.362a7 7 0 1 1 0-14h62.362a7 7 0 0 1 7 7zm0 22.791a7 7 0 0 1-7 7h-62.362a7 7 0 1 1 0-14h62.362a7 7 0 0 1 7 7zm0 22.819a7 7 0 0 1-7 7h-62.362a7 7 0 1 1 0-14h62.362a7 7 0 0 1 7 7zm44.932-91.218a7 7 0 0 1 7-7h62.362a7 7 0 1 1 0 14h-62.362a7 7 0 0 1-7-7zm0 22.791a7 7 0 0 1 7-7h62.362a7 7 0 1 1 0 14h-62.362a7 7 0 0 1-7-7zm0 22.818a7 7 0 0 1 7-7h62.362a7 7 0 1 1 0 14h-62.362a7 7 0 0 1-7-7zm0 22.791a7 7 0 0 1 7-7h62.362a7 7 0 1 1 0 14h-62.362a7 7 0 0 1-7-7zm0 22.819a7 7 0 0 1 7-7h62.362a7 7 0 1 1 0 14h-62.362a7 7 0 0 1-7-7zM364.11 164.846a6.993 6.993 0 0 0 6.894.178l59.27-31.548a6.999 6.999 0 0 0 .004-12.357L371.004 89.54a6.997 6.997 0 0 0-10.29 6.178v63.127a7 7 0 0 0 3.396 6.001zm10.604-57.47 37.379 19.914-37.379 19.896v-39.811z" fill="#333333" opacity="1" data-original="#000000" class=""></path><path fill="#776d77" d="M122.772 128.794a7.016 7.016 0 0 1-2.285-.383l-61.722-21.315v34.45c22.461 12.397 43.438 18.591 64.007 18.913 13.972-.219 28.129-3.15 42.805-8.881v-37.157l-40.52 13.99a7.016 7.016 0 0 1-2.285.383z" opacity="1" data-original="#776d77"></path><path fill="#837683" d="m152.581 104.097-32.418-13.026a7 7 0 0 1-3.885-9.105 6.999 6.999 0 0 1 9.105-3.885l47.395 19.044 36.354-12.551-86.358-29.838-86.336 29.838 86.336 29.815 29.808-10.291z" opacity="1" data-original="#837683" class=""></path><path fill="#776d77" d="M186.808 141.547v-34.455l-7.231 2.497v35.748a197.938 197.938 0 0 0 7.231-3.789z" opacity="1" data-original="#776d77"></path><path fill="#d7dddd" d="M364.563 436.496h104.29v-7.146H376.84c-5.253 0-9.837 2.884-12.277 7.146z" opacity="1" data-original="#d7dddd" class=""></path><path fill="#ffffff" d="M374.713 107.374v39.811l37.379-19.897z" opacity="1" data-original="#ffffff" class=""></path><path fill="#7ca1b1" d="M117.527 449.476h89.833v8.195h-89.833z" opacity="1" data-original="#7ca1b1" class=""></path><path fill="#6b96a5" d="M171.451 435.476h35.908v-38.583H186.26z" opacity="1" data-original="#6b96a5" class=""></path><path fill="#c3d1d0" d="M242.506 429.35v7.146h104.315c-2.445-4.262-7.038-7.146-12.302-7.146z" opacity="1" data-original="#c3d1d0" class=""></path><path fill="#7fb3d5" d="M482.854 443.496a7 7 0 0 1-7 7H235.506a7 7 0 0 1-7-7V294.195h-7.146v163.476h268.641V294.195h-7.146v149.301z" opacity="1" data-original="#8ac9fe" class=""></path></g></svg>