<svg xmlns="http://www.w3.org/2000/svg" version="1.1" xmlns:xlink="http://www.w3.org/1999/xlink" width="512" height="512" x="0" y="0" viewBox="0 0 512 512" style="enable-background:new 0 0 512 512" xml:space="preserve" class=""><g><g data-name="FILLED OUTLINE"><path fill="#57b584" d="m231.44 203.032-22-82.042a16 16 0 0 0-11.737-11.418l-88.494-21.134a16 16 0 0 0-14.72 3.948L28.441 154.96a16 16 0 0 0-4.45 15.759l22 82.042A16 16 0 0 0 57.73 264.18l88.494 21.134a16 16 0 0 0 14.721-3.947l66.047-62.575a16 16 0 0 0 4.45-15.76z" opacity="1" data-original="#57b584"></path><path fill="#4aa071" d="m231.44 203.032-22-82.042a15.983 15.983 0 0 0-4.703-7.694l-70.704 67.554a15.984 15.984 0 0 1-7.187 3.94l26.959 100.481a15.982 15.982 0 0 0 7.14-3.904l66.046-62.576a16 16 0 0 0 4.45-15.759z" opacity="1" data-original="#4aa071"></path><path fill="#5dc691" d="m197.703 109.572-88.494-21.134a16 16 0 0 0-14.72 3.948L28.441 154.96a15.977 15.977 0 0 0-4.27 6.877l95.06 22.98a16 16 0 0 0 14.8-3.968l70.705-67.554a15.973 15.973 0 0 0-7.034-3.724z" opacity="1" data-original="#5dc691"></path><path fill="#1f3f66" d="M481.223 106.505 416.097 29.62a16 16 0 0 0-14.591-5.48l-99.637 15.004a16 16 0 0 0-12.596 10.196l-34.177 91a16 16 0 0 0 2.77 15.967l65.126 76.883a16 16 0 0 0 14.592 5.48l99.636-15.003a16 16 0 0 0 12.596-10.196l34.177-91a16 16 0 0 0-2.77-15.967z" opacity="1" data-original="#1f3f66" class=""></path><path fill="#234575" d="m364.48 122.725-68.823-81.247a15.99 15.99 0 0 0-6.384 7.863l-34.177 91a16 16 0 0 0 2.77 15.967l65.126 76.883a15.987 15.987 0 0 0 6.795 4.71l41.432-110.486a15.987 15.987 0 0 1-6.739-4.69z" opacity="1" data-original="#234575"></path><path fill="#27498c" d="M481.223 106.505 416.097 29.62a16 16 0 0 0-14.591-5.48l-99.637 15.004a15.977 15.977 0 0 0-6.212 2.333l68.823 81.247a15.999 15.999 0 0 0 14.591 5.48l105.292-15.855a15.976 15.976 0 0 0-3.14-5.845z" opacity="1" data-original="#27498c"></path><rect width="88" height="136" x="400" y="352" fill="#234575" rx="16" opacity="1" data-original="#234575"></rect><path fill="#1c3b54" d="M432 352h16v72h-16zM432 440h16v24h-16z" opacity="1" data-original="#1c3b54"></path><path fill="#e5e1dc" d="M16 392h16v56H16zM48 432h16v40H48zM80 464h16v32H80z" opacity="1" data-original="#e5e1dc"></path><path fill="#b59191" d="M219.344 332.419a32 32 0 0 0-34.249-15.838l-17.109 3.001a31.93 31.93 0 0 1 11.223 11.1l33.882 56.47 33.553-5.593z" opacity="1" data-original="#b59191"></path><path fill="#c69e9e" d="M179.21 330.683a32 32 0 0 0-32.701-15.101l-24.823 4.137a31.95 31.95 0 0 1 10.304 9.409l44.737 64.084 36.364-6.06z" opacity="1" data-original="#c69e9e"></path><path fill="#e2b5b3" d="M124.328 384.437a32 32 0 0 0 30.86 12.365l21.54-3.59L176 392l-44.01-62.872A32 32 0 0 0 99.499 316.1l-23.003 4.6c.105.134.22.255.322.391z" opacity="1" data-original="#e2b5b3"></path><path fill="#f2c1bd" d="m400 376-64-24-24.745-55.676A27.487 27.487 0 0 0 286.137 280a27.487 27.487 0 0 0-26.077 36.18L280 376l-124.811 20.802a32 32 0 0 1-30.861-12.365l-47.51-63.346a23.688 23.688 0 0 0-31.138-6.1 23.747 23.747 0 0 0-7.286 33.919c17.372 24.996 45.24 65.23 54.501 78.606a16 16 0 0 0 8.303 6.138l167.453 53.28a15.997 15.997 0 0 0 6.836.63L400 472z" opacity="1" data-original="#f2c1bd" class=""></path><path fill="#336baf" d="m388.122 59.702 5.632-14.976 14.976 5.632-5.632 14.976zM371.213 104.641l5.632-14.976 14.976 5.632-5.632 14.976z" opacity="1" data-original="#336baf"></path><path fill="#2b6299" d="m299.068 137.378 5.632-14.976 14.976 5.632-5.632 14.976z" opacity="1" data-original="#2b6299"></path><path fill="#205682" d="m367.417 205.82 5.632-14.977 14.976 5.632-5.632 14.976zM393.662 181.482l5.632-14.976 14.976 5.632-5.632 14.976zM427.379 159.942l5.632-14.976 14.976 5.632-5.632 14.976z" opacity="1" data-original="#205682"></path><path fill="#66d9a3" d="m101.348 119.421 15.456-4.144 4.143 15.455-15.456 4.144zM109.635 150.334l15.456-4.144 4.144 15.455-15.456 4.144z" opacity="1" data-original="#66d9a3"></path><path fill="#336baf" d="m349.691 70.907 5.632-14.976 14.976 5.632-5.632 14.976zM409.625 93.426l5.632-14.976 14.976 5.632-5.632 14.976zM379.658 82.167l5.632-14.976 14.976 5.632-5.632 14.976z" opacity="1" data-original="#336baf"></path><g fill="#5dc691"><path d="m77.777 216.856 15.456-4.144 4.144 15.457-15.456 4.144zM155.052 196.143l15.456-4.144 4.144 15.455-15.456 4.144zM179.752 164.662l15.456-4.144 4.144 15.457-15.456 4.144zM163.34 227.055l15.456-4.144 4.143 15.455-15.456 4.144zM188.04 195.574l15.456-4.144 4.145 15.457-15.456 4.144z" fill="#5dc691" opacity="1" data-original="#5dc691"></path></g><path d="M472 344h-56a24.035 24.035 0 0 0-23.749 20.55l-50.303-18.863-23.383-52.613A35.518 35.518 0 0 0 286.137 272a35.488 35.488 0 0 0-33.667 46.71l16.98 50.937-18.554 3.093-24.56-44.206a39.867 39.867 0 0 0-42.81-19.798l-13.596 2.72a39.914 39.914 0 0 0-24.737-3.766L123 311.39a39.96 39.96 0 0 0-25.071-3.134l-18.606 3.721a31.73 31.73 0 0 0-47.499 41.499c17.514 25.198 46.139 66.527 54.493 78.592a24.111 24.111 0 0 0 12.456 9.21l167.452 53.28a24.144 24.144 0 0 0 7.303 1.128 23.813 23.813 0 0 0 2.952-.183l117.219-14.653A24.033 24.033 0 0 0 416 496h56a24.027 24.027 0 0 0 24-24V368a24.027 24.027 0 0 0-24-24zm-285.336-19.574a23.92 23.92 0 0 1 25.687 11.878l21.793 39.228-16.995 2.832-31.079-51.798a41.13 41.13 0 0 0-1.147-1.792zm-38.84-.952a23.86 23.86 0 0 1 24.526 11.325l27.835 46.393-19.689 3.28-41.652-59.502zm-46.758.471a24 24 0 0 1 24.37 9.77l37.57 53.673-9.133 1.522a23.908 23.908 0 0 1-23.144-9.272l-40.19-53.587zM392 464.937l-117.505 14.689a7.939 7.939 0 0 1-3.418-.314l-167.453-53.28a8.031 8.031 0 0 1-4.151-3.071c-8.358-12.07-36.99-53.408-54.51-78.616a15.723 15.723 0 0 1 25.455-18.454l47.51 63.346a39.86 39.86 0 0 0 38.576 15.456l52.53-8.755.106.178.45-.27 66.623-11.104 29.13 43.695 13.313-8.875-31.405-47.108-19.602-58.804A19.488 19.488 0 0 1 286.137 288a19.505 19.505 0 0 1 17.807 11.572l26.108 58.741L392 381.543zM480 472a8.01 8.01 0 0 1-8 8h-56a8.01 8.01 0 0 1-8-8V368a8.01 8.01 0 0 1 8-8h16v64h16v-64h24a8.01 8.01 0 0 1 8 8z" fill="#000000" opacity="1" data-original="#000000" class=""></path><path d="M432 440h16v24h-16zM16 392h16v56H16zM48 432h16v40H48zM80 464h16v32H80zM316.888 238.362a23.825 23.825 0 0 0 18.252 8.493 24.493 24.493 0 0 0 3.635-.272l99.635-15.004a24.02 24.02 0 0 0 18.896-15.295l34.176-90.999a24.02 24.02 0 0 0-4.155-23.951L422.201 24.45a23.858 23.858 0 0 0-21.887-8.22L300.68 31.233a24.016 24.016 0 0 0-18.895 15.295l-34.178 91a24.019 24.019 0 0 0 4.156 23.95zm125.44-27.704a8.005 8.005 0 0 1-6.3 5.099l-94.99 14.304 35.185-93.682c.134.002.267.01.401.01a24.533 24.533 0 0 0 3.639-.273l95.459-14.374zM402.695 32.052a8.073 8.073 0 0 1 1.212-.091 7.942 7.942 0 0 1 6.084 2.83l60.6 71.542-92.712 13.961a7.936 7.936 0 0 1-7.295-2.74l-60.601-71.54zM262.585 143.153l33.395-88.916 62.396 73.66a24.394 24.394 0 0 0 2.866 2.862l-35.182 93.677-62.09-73.3a8.007 8.007 0 0 1-1.385-7.983z" fill="#000000" opacity="1" data-original="#000000" class=""></path><path d="m388.122 59.702 5.632-14.976 14.976 5.632-5.632 14.976zM371.213 104.641l5.632-14.976 14.976 5.632-5.632 14.976zM299.068 137.378l5.632-14.976 14.976 5.632-5.632 14.976zM367.417 205.82l5.632-14.977 14.976 5.632-5.632 14.976zM393.662 181.482l5.632-14.976 14.976 5.632-5.632 14.976zM427.379 159.942l5.632-14.976 14.976 5.632-5.632 14.976zM38.266 254.834a23.976 23.976 0 0 0 17.605 17.127l88.493 21.135a23.945 23.945 0 0 0 22.082-5.921l66.046-62.576a23.979 23.979 0 0 0 6.676-23.638l-22-82.042a23.976 23.976 0 0 0-17.606-17.128l-88.495-21.135a23.917 23.917 0 0 0-22.08 5.922l-66.049 62.575a23.976 23.976 0 0 0-6.672 23.639zM202.64 126.517l21.074 78.587a7.993 7.993 0 0 1-2.226 7.88l-62.587 59.299-22.325-83.254a24.16 24.16 0 0 0 2.976-2.388zM99.99 98.193a7.979 7.979 0 0 1 7.36-1.974l83.072 19.84-61.91 59a7.96 7.96 0 0 1-7.399 1.984L37.99 156.935zm17.36 94.4a24.237 24.237 0 0 0 3.777.596l22.32 83.238-83.86-20.029a7.994 7.994 0 0 1-5.868-5.709l-21.074-78.587z" fill="#000000" opacity="1" data-original="#000000" class=""></path><path d="m101.349 119.418 15.456-4.144 4.143 15.455-15.456 4.144zM109.637 150.33l15.456-4.143 4.144 15.455-15.456 4.144zM349.691 70.907l5.632-14.976 14.976 5.632-5.632 14.976zM409.625 93.426l5.632-14.976 14.976 5.632-5.632 14.976zM379.658 82.167l5.632-14.976 14.976 5.632-5.632 14.976zM77.777 216.856l15.456-4.144 4.144 15.457-15.456 4.144zM155.052 196.143l15.456-4.144 4.144 15.455-15.456 4.144zM179.752 164.662l15.456-4.144 4.144 15.457-15.456 4.144zM163.343 227.051l15.456-4.144 4.143 15.455-15.456 4.144zM188.047 195.564l15.456-4.144 4.145 15.457-15.456 4.144z" fill="#000000" opacity="1" data-original="#000000" class=""></path></g></g></svg>