<svg xmlns="http://www.w3.org/2000/svg" version="1.1" xmlns:xlink="http://www.w3.org/1999/xlink" width="512" height="512" x="0" y="0" viewBox="0 0 512 512" style="enable-background:new 0 0 512 512" xml:space="preserve" class=""><g><g fill-rule="evenodd" clip-rule="evenodd"><path fill="#00a8e8" d="M307.219 255.93c0 28.246-22.976 51.205-51.22 51.205-28.224 0-51.172-22.988-51.172-51.205 0-28.219 22.948-51.201 51.172-51.201 28.244 0 51.22 22.954 51.22 51.201zm-27.15-107.456c0-6.906-5.632-12.554-12.54-12.554h-23.01c-6.933 0-12.54 5.626-12.54 12.554 0 8.434-4.901 15.667-12.671 18.878-7.744 3.2-16.338 1.545-22.273-4.413-4.874-4.893-12.853-4.87-17.733.004l-16.281 16.262a12.495 12.495 0 0 0-3.695 8.876c0 3.356 1.335 6.506 3.699 8.88 5.914 5.938 7.636 14.542 4.43 22.279-3.214 7.755-10.466 12.636-18.882 12.636-6.929 0-12.587 5.617-12.587 12.554v23.001c0 6.937 5.658 12.554 12.587 12.554 8.414 0 15.671 4.875 18.882 12.632 3.205 7.741 1.487 16.341-4.43 22.283-2.363 2.372-3.699 5.527-3.699 8.88 0 3.35 1.328 6.51 3.695 8.876l16.281 16.267c4.881 4.876 12.856 4.882 17.735.001 5.935-5.938 14.53-7.643 22.273-4.433 7.774 3.223 12.668 10.451 12.668 18.895 0 6.931 5.605 12.554 12.54 12.554h23.01c6.911 0 12.54-5.646 12.54-12.554 0-8.402 4.877-15.666 12.621-18.877 7.757-3.216 16.366-1.539 22.32 4.414 4.891 4.891 12.843 4.888 17.736-.001l16.281-16.267c2.37-2.368 3.648-5.529 3.648-8.876s-1.278-6.508-3.648-8.876c-5.953-5.946-7.675-14.537-4.431-22.293 3.238-7.742 10.455-12.625 18.879-12.625 6.911 0 12.54-5.646 12.54-12.554V244.43c0-6.908-5.63-12.554-12.54-12.554-8.426 0-15.638-4.888-18.879-12.629-3.245-7.752-1.518-16.346 4.431-22.289 2.372-2.37 3.648-5.527 3.648-8.876 0-3.347-1.277-6.508-3.648-8.876l-16.281-16.262c-4.896-4.891-12.842-4.895-17.736-.001-5.953 5.953-14.564 7.624-22.32 4.409-7.746-3.213-12.62-10.473-12.62-18.878zm-179.187-11.373v237.662c0 20.017 16.29 36.284 36.303 36.284h237.676c19.994 0 36.256-16.295 36.256-36.284V137.101c0-19.989-16.262-36.289-36.256-36.289H137.185c-20.013 0-36.303 16.272-36.303 36.289z" opacity="1" data-original="#a4d4ff" class=""></path><path fill="#0a2472" d="M256 305.135c-27.104 0-49.173-22.074-49.173-49.205 0-27.132 22.069-49.201 49.173-49.201 27.151 0 49.22 22.069 49.22 49.201 0 27.131-22.069 49.205-49.22 49.205zM431.867 9.068h-5.119c-9.65 1.03-17.637 7.822-20.407 16.86h-43.714c-3.858 0-7.011 3.139-7.011 7.002v55.878h-92.605V59.695c9.835-3.007 16.987-12.159 16.987-22.958 0-13.232-10.776-23.998-23.998-23.998s-23.998 10.766-23.998 23.998c0 10.799 7.199 19.951 17.034 22.958v29.113h-92.651V32.93c0-3.863-3.106-7.002-6.964-7.002H105.66c-2.77-9.038-10.717-15.83-20.397-16.86H80.14C68.113 10.349 58.697 20.562 58.697 32.93c0 13.232 10.776 23.998 23.998 23.998 10.823 0 19.951-7.167 22.963-16.996h36.75v48.876h-5.223c-26.633 0-48.278 21.664-48.278 48.293v5.223h-48.89v-36.741c9.835-3.002 16.987-12.159 16.987-22.958 0-13.232-10.776-23.998-23.998-23.998S9.007 69.393 9.007 82.625c0 10.799 7.199 19.956 16.987 22.958v43.743c0 3.868 3.153 7.002 7.011 7.002h55.902v92.605H55.968c-3.012-9.83-12.14-17.001-22.963-17.001-13.222 0-23.998 10.766-23.998 23.998 0 13.237 10.776 23.998 23.998 23.998 10.823 0 19.951-7.167 22.963-16.996h32.939v92.604H33.005c-3.858 0-7.011 3.134-7.011 6.997v43.742c-9.788 3.007-16.987 12.159-16.987 22.958 0 13.232 10.776 23.998 23.998 23.998s23.998-10.766 23.998-23.998c0-10.799-7.152-19.951-16.987-22.958v-36.741h48.89v5.228c0 26.624 21.645 48.288 48.278 48.288h5.223v48.881h-36.75c-3.011-9.83-12.14-17.001-22.963-17.001-13.222 0-23.998 10.766-23.998 23.998 0 13.237 10.776 24.003 23.998 24.003 10.823 0 19.951-7.171 22.963-17.001h43.761c3.858 0 7.011-3.134 7.011-7.002V423.05h92.604v32.925c-9.834 3.002-17.034 12.159-17.034 22.954 0 13.237 10.776 24.003 23.998 24.003s23.998-10.766 23.998-24.003c0-10.795-7.152-19.951-16.987-22.954V423.05h92.605v55.878c0 3.868 3.153 7.002 7.011 7.002h43.714c3.012 9.83 12.187 17.001 22.963 17.001 13.27 0 23.998-10.766 23.998-24.003 0-13.232-10.729-23.998-23.998-23.998-10.776 0-19.951 7.171-22.963 17.001h-36.75V423.05h5.27c26.633 0 48.279-21.664 48.279-48.288v-5.228h48.89v36.741c-9.835 3.007-17.034 12.159-17.034 22.958 0 13.232 10.776 23.998 23.998 23.998 13.27 0 23.998-10.766 23.998-23.998 0-10.799-7.152-19.951-16.987-22.958v-43.742a6.984 6.984 0 0 0-7.012-6.997h-55.85v-92.604h32.892c3.011 9.83 12.187 16.996 22.963 16.996 13.27 0 23.998-10.761 23.998-23.998 0-13.232-10.729-23.998-23.998-23.998-10.776 0-19.951 7.171-22.963 17.001H423.14v-92.605h55.854a6.985 6.985 0 0 0 7.012-7.002v-43.743c9.835-3.002 16.987-12.159 16.987-22.958 0-13.232-10.729-23.998-23.998-23.998-13.223 0-23.998 10.766-23.998 23.998 0 10.799 7.199 19.956 17.034 22.958v36.741h-48.89v-5.223c0-26.628-21.645-48.293-48.279-48.293h-5.27V39.932h36.75c3.012 9.83 12.187 16.996 22.963 16.996 13.27 0 23.998-10.766 23.998-23.998-.001-12.368-9.375-22.581-21.436-23.862zM256 192.725c-34.821 0-63.195 28.355-63.195 63.205 0 34.849 28.374 63.204 63.195 63.204 34.868 0 63.195-28.355 63.195-63.204 0-34.85-28.327-63.205-63.195-63.205zm108.039 74.705v-23.001c0-.306-.282-.555-.565-.555-13.364 0-24.845-7.679-29.974-20.041s-2.447-25.909 7.011-35.357c.047-.042.188-.165.188-.395a.49.49 0 0 0-.188-.391l-16.234-16.267c-.047-.038-.188-.16-.424-.16-.235 0-.329.122-.376.16-9.458 9.449-23.01 12.135-35.386 7.02-12.328-5.124-20.046-16.606-20.046-29.969 0-.306-.235-.551-.518-.551h-23.01a.547.547 0 0 0-.565.551c0 13.364-7.67 24.845-20.046 29.969-12.376 5.115-25.927 2.428-35.338-7.02-.047-.038-.188-.16-.424-.16-.235 0-.329.122-.376.16l-16.281 16.267c-.047.038-.141.16-.141.391 0 .23.094.353.141.391 9.458 9.453 12.14 23.001 7.058 35.362-5.129 12.361-16.611 20.041-29.974 20.041a.55.55 0 0 0-.565.555v23.001a.55.55 0 0 0 .565.555c13.364 0 24.845 7.679 29.974 20.041 5.082 12.362 2.4 25.914-7.058 35.362-.047.042-.141.16-.141.391 0 .23.094.353.141.39l16.281 16.267a.575.575 0 0 0 .8 0c6.258-6.287 14.352-9.585 22.728-9.585 4.235 0 8.47.838 12.611 2.551 12.376 5.119 20.046 16.606 20.046 29.983a.55.55 0 0 0 .565.555h23.01c.282 0 .518-.249.518-.555 0-13.364 7.717-24.845 20.046-29.965 12.375-5.12 25.927-2.433 35.386 7.016.188.216.565.216.8 0l16.234-16.267a.487.487 0 0 0 .188-.39c0-.231-.141-.348-.188-.391-9.458-9.449-12.14-23.001-7.011-35.362s16.61-20.041 29.974-20.041c.281-.001.564-.25.564-.556zm-.565-37.555c-9.082 0-14.728-5.891-17.034-11.402-2.306-5.505-2.447-13.683 4-20.102a14.507 14.507 0 0 0 4.235-10.291c0-3.887-1.506-7.543-4.235-10.291l-16.281-16.262c-5.694-5.675-14.916-5.679-20.563 0-6.447 6.414-14.634 6.258-20.14 3.976-5.505-2.282-11.387-7.952-11.387-17.029 0-8.023-6.541-14.554-14.54-14.554h-23.01c-8.046 0-14.54 6.531-14.54 14.554 0 9.077-5.882 14.747-11.434 17.029-5.505 2.287-13.693 2.438-20.092-3.976-5.647-5.679-14.917-5.675-20.563 0l-16.281 16.262c-2.729 2.748-4.282 6.404-4.282 10.291 0 3.891 1.553 7.543 4.282 10.291 6.399 6.419 6.258 14.596 4 20.102-2.306 5.51-7.952 11.402-17.034 11.402-8.046 0-14.587 6.527-14.587 14.554v23.001c0 8.028 6.541 14.554 14.587 14.554 9.082 0 14.729 5.887 17.034 11.397 2.259 5.515 2.4 13.689-4 20.107-2.729 2.748-4.282 6.404-4.282 10.291 0 3.886 1.553 7.543 4.282 10.291l16.281 16.267c5.647 5.675 14.917 5.67 20.563 0 6.447-6.428 14.634-6.282 20.092-4 5.553 2.282 11.434 7.957 11.434 17.048 0 8.028 6.494 14.554 14.54 14.554h23.01c7.999 0 14.54-6.527 14.54-14.554 0-9.072 5.882-14.747 11.387-17.029s13.693-2.437 20.14 3.981c5.647 5.675 14.87 5.67 20.563 0l16.281-16.267c2.729-2.748 4.235-6.404 4.235-10.291s-1.506-7.543-4.235-10.291c-6.447-6.418-6.305-14.592-4-20.107 2.306-5.51 7.952-11.397 17.034-11.397 7.999 0 14.54-6.526 14.54-14.554v-23.001c0-8.027-6.541-14.554-14.54-14.554zm45.643 144.888V137.101c0-18.907-15.387-34.289-34.256-34.289H137.185c-18.916 0-34.303 15.382-34.303 34.289v237.662c0 18.907 15.387 34.284 34.303 34.284h237.676c18.869 0 34.256-15.377 34.256-34.284zm79.9 54.471c0 5.515-4.517 9.999-10.023 9.999-5.505 0-9.976-4.484-9.976-9.999s4.47-10.004 9.976-10.004 10.023 4.489 10.023 10.004zm-59.713 39.696c5.553 0 10.023 4.489 10.023 9.999 0 5.515-4.47 10.004-10.023 10.004-5.505 0-9.976-4.489-9.976-10.004 0-5.51 4.471-9.999 9.976-9.999zm-163.281 9.999c0 5.515-4.517 10.004-10.023 10.004-5.505 0-9.976-4.489-9.976-10.004s4.47-9.999 9.976-9.999c5.505 0 10.023 4.484 10.023 9.999zM82.696 488.933c-5.505 0-9.976-4.489-9.976-10.004s4.47-9.999 9.976-9.999 10.023 4.484 10.023 9.999c-.001 5.515-4.518 10.004-10.023 10.004zm-39.668-59.699c0 5.515-4.517 9.999-10.023 9.999-5.505 0-9.976-4.484-9.976-9.999s4.47-10.004 9.976-10.004 10.023 4.489 10.023 10.004zM33.005 265.929c-5.505 0-9.976-4.484-9.976-9.999 0-5.51 4.47-9.999 9.976-9.999s10.023 4.489 10.023 9.999c0 5.514-4.517 9.999-10.023 9.999zM23.03 82.625c0-5.51 4.47-9.999 9.976-9.999s10.023 4.489 10.023 9.999c0 5.515-4.517 10.004-10.023 10.004S23.03 88.14 23.03 82.625zm59.666-39.696c-5.505 0-9.976-4.484-9.976-9.999s4.47-9.999 9.976-9.999 10.023 4.484 10.023 9.999c-.001 5.515-4.518 9.999-10.023 9.999zm163.328-6.192c0-5.515 4.47-9.999 9.976-9.999 5.505 0 10.023 4.485 10.023 9.999s-4.517 9.999-10.023 9.999-9.976-4.484-9.976-9.999zm183.28-13.806c5.553 0 10.023 4.484 10.023 9.999s-4.47 9.999-10.023 9.999c-5.505 0-9.976-4.484-9.976-9.999s4.471-9.999 9.976-9.999zm39.715 59.694c0-5.51 4.47-9.999 9.976-9.999s10.023 4.489 10.023 9.999c0 5.515-4.517 10.004-10.023 10.004s-9.976-4.489-9.976-10.004zm9.975 163.305c5.506 0 10.023 4.489 10.023 9.999 0 5.515-4.517 9.999-10.023 9.999-5.505 0-9.976-4.484-9.976-9.999.001-5.51 4.471-9.999 9.976-9.999z" opacity="1" data-original="#1f4571" class=""></path></g></g></svg>