<svg version="1.1" id="Capa_1" xmlns="http://www.w3.org/2000/svg" xmlns:xlink="http://www.w3.org/1999/xlink" x="0px" y="0px" viewBox="0 0 512 512" style="enable-background:new 0 0 512 512;" xml:space="preserve">
<g>
	<g>
		<polygon style="fill:#004281;" points="507,350.84 506.999,314.605 224.624,441.41 256,495.762 &#9;&#9;"/>
		<polygon style="fill:#0067C5;" points="5,350.84 5.001,314.605 256,435.935 256,495.762 &#9;&#9;"/>
		<polygon style="fill:#B3DAFE;" points="256,169.696 5,314.611 256,459.526 507,314.611 &#9;&#9;"/>
		<path style="fill:#60B7FF;" d="M67.746,278.378l-0.011-0.003l-0.003,27.885l0.011,0.003&#10;&#9;&#9;&#9;c-0.047,27.924,18.278,55.863,54.972,77.049c73.306,42.321,193.256,42.32,266.557-0.001&#10;&#9;&#9;&#9;c36.647-21.158,54.977-49.051,54.977-76.948l0.001-27.982l-0.01-0.003L67.746,278.378z"/>
		<path style="fill:#B3DAFE;" d="M389.268,355.33c73.301-42.319,73.301-111.571,0-153.893s-193.249-42.322-266.55,0&#10;&#9;&#9;&#9;s-73.301,111.574,0,153.893S315.967,397.649,389.268,355.33z"/>
		<polygon style="fill:#B3DAFE;" points="304.457,194.443 280.225,208.433 255.993,194.443 231.761,208.433 207.53,194.443 &#10;&#9;&#9;&#9;110.602,250.404 134.834,264.394 110.602,278.384 134.834,292.375 110.602,306.365 207.53,362.326 231.761,348.336 &#10;&#9;&#9;&#9;255.993,362.326 280.225,348.336 304.457,362.326 401.384,306.365 377.152,292.375 401.384,278.384 377.152,264.394 &#10;&#9;&#9;&#9;401.384,250.404 &#9;&#9;"/>
		<polygon style="fill:#FFD15B;" points="207.529,222.422 208.08,207.477 183.298,208.431 159.066,222.422 159.316,234.624 &#10;&#9;&#9;&#9;183.298,236.412 205.366,237.068 &#9;&#9;"/>
		<polygon style="fill:#FFD15B;" points="304.457,334.346 306.443,350.292 328.688,348.337 352.92,334.346 352.986,317.105 &#10;&#9;&#9;&#9;328.688,320.356 307.02,321.836 &#9;&#9;"/>
		<polygon style="fill:#FE7D43;" points="183.297,292.374 163.665,294.027 159.066,306.365 164.632,321.637 183.297,320.355 &#10;&#9;&#9;&#9;200.845,319.575 207.529,306.365 201.164,292.248 &#9;&#9;"/>
		<polygon style="fill:#FE7D43;" points="231.761,320.355 212.129,322.008 207.529,334.346 213.096,349.618 231.761,348.336 &#10;&#9;&#9;&#9;249.308,347.556 255.992,334.346 249.627,320.229 &#9;&#9;"/>
		<polygon style="fill:#FFD15B;" points="280.224,320.355 260.592,322.008 255.992,334.346 261.559,349.618 280.224,348.336 &#10;&#9;&#9;&#9;297.771,347.556 304.456,334.346 298.091,320.229 &#9;&#9;"/>
		<polygon style="fill:#FFD15B;" points="231.761,292.374 212.129,294.026 207.529,306.365 213.096,321.637 231.761,320.355 &#10;&#9;&#9;&#9;249.308,319.575 255.993,306.365 249.627,292.248 &#9;&#9;"/>
		<polygon style="fill:#FFD15B;" points="183.298,264.393 163.666,266.045 159.066,278.384 164.632,293.656 183.297,292.374 &#10;&#9;&#9;&#9;200.845,291.594 207.529,278.384 201.164,264.267 &#9;&#9;"/>
		<polygon style="fill:#FFD15B;" points="183.298,236.412 163.666,238.065 159.066,250.403 164.633,265.675 183.298,264.393 &#10;&#9;&#9;&#9;200.845,263.613 207.529,250.403 201.164,236.286 &#9;&#9;"/>
		<polygon style="fill:#FFD15B;" points="231.761,264.393 212.129,266.045 207.529,278.384 213.096,293.656 231.761,292.374 &#10;&#9;&#9;&#9;249.308,291.594 255.993,278.384 249.627,264.267 &#9;&#9;"/>
		<polygon style="fill:#FFD15B;" points="280.224,292.374 260.593,294.026 255.993,306.365 261.559,321.636 280.224,320.355 &#10;&#9;&#9;&#9;297.772,319.575 304.456,306.365 298.091,292.247 &#9;&#9;"/>
		<polygon style="fill:#FFD15B;" points="328.688,292.374 309.056,294.026 304.456,306.365 310.023,321.637 328.688,320.355 &#10;&#9;&#9;&#9;346.235,319.575 352.92,306.365 346.554,292.247 &#9;&#9;"/>
		<polygon style="fill:#FFD15B;" points="280.225,264.393 260.593,266.045 255.993,278.384 261.559,293.656 280.224,292.374 &#10;&#9;&#9;&#9;297.772,291.594 304.456,278.384 298.091,264.267 &#9;&#9;"/>
		<polygon style="fill:#FFD15B;" points="231.761,236.412 212.129,238.065 207.529,250.403 213.096,265.675 231.761,264.393 &#10;&#9;&#9;&#9;249.308,263.613 255.993,250.403 249.627,236.286 &#9;&#9;"/>
		<polygon style="fill:#0AB69F;" points="231.761,208.431 212.129,210.084 207.529,222.422 213.096,237.694 231.761,236.412 &#10;&#9;&#9;&#9;249.308,235.632 255.993,222.422 249.628,208.305 &#9;&#9;"/>
		<polygon style="fill:#0AB69F;" points="280.225,236.412 260.593,238.065 255.993,250.403 261.56,265.675 280.225,264.393 &#10;&#9;&#9;&#9;297.772,263.613 304.456,250.403 298.091,236.286 &#9;&#9;"/>
		<polygon style="fill:#0AB69F;" points="328.688,236.413 309.056,238.065 304.456,250.403 310.023,265.675 328.688,264.393 &#10;&#9;&#9;&#9;346.235,263.613 352.92,250.403 346.554,236.286 &#9;&#9;"/>
		<polygon style="fill:#0AB69F;" points="280.225,208.431 260.593,210.084 255.993,222.422 261.56,237.694 280.225,236.412 &#10;&#9;&#9;&#9;297.772,235.632 304.456,222.422 298.091,208.305 &#9;&#9;"/>
		<polygon style="fill:#0AB69F;" points="328.688,208.432 309.056,210.084 304.456,222.422 310.023,237.694 328.688,236.412 &#10;&#9;&#9;&#9;346.235,235.632 352.92,222.422 &#9;&#9;"/>
		<polygon style="fill:#0AB69F;" points="328.688,264.393 309.056,266.046 304.456,278.384 310.023,293.656 328.688,292.374 &#10;&#9;&#9;&#9;346.235,291.594 352.92,278.384 346.554,264.267 &#9;&#9;"/>
		<polygon style="fill:#0AB69F;" points="377.152,292.374 357.52,294.027 352.92,306.365 358.486,321.637 377.151,320.355 &#10;&#9;&#9;&#9;401.383,306.365 &#9;&#9;"/>
		<polygon style="fill:#0AB69F;" points="377.152,264.394 357.52,266.046 352.92,278.384 358.487,293.656 377.152,292.375 &#10;&#9;&#9;&#9;401.384,278.384 &#9;&#9;"/>
		<polygon style="fill:#0AB69F;" points="377.152,236.413 357.52,238.066 352.92,250.404 358.487,265.676 377.152,264.394 &#10;&#9;&#9;&#9;401.384,250.404 &#9;&#9;"/>
		<polygon style="fill:#FE7D43;" points="183.297,320.355 165.582,319.462 159.066,334.346 183.297,348.336 203.919,349.392 &#10;&#9;&#9;&#9;207.529,334.346 206.013,316.061 &#9;&#9;"/>
		<polygon style="fill:#FE7D43;" points="159.066,250.403 157.099,236.373 134.834,236.412 110.602,250.403 134.834,264.393 &#10;&#9;&#9;&#9;134.834,264.393 157.051,263.23 &#9;&#9;"/>
		<polygon style="fill:#FE7D43;" points="159.066,278.384 157.099,264.354 134.835,264.393 110.602,278.384 134.834,292.375 &#10;&#9;&#9;&#9;134.834,292.375 157.051,291.211 &#9;&#9;"/>
		<polygon style="fill:#FE7D43;" points="159.066,306.365 157.099,292.335 134.834,292.374 110.602,306.365 134.834,320.355 &#10;&#9;&#9;&#9;134.834,320.355 157.051,319.192 &#9;&#9;"/>
		<polygon style="fill:#FEAD8A;" points="207.529,306.365 183.297,320.355 207.529,334.346 231.761,320.355 &#9;&#9;"/>
		<polygon style="fill:#FEAD8A;" points="231.761,320.355 255.993,334.346 280.225,320.356 255.993,306.365 &#9;&#9;"/>
		<polygon style="fill:#FEAD8A;" points="159.066,278.384 134.834,292.374 159.066,306.365 183.297,292.374 &#9;&#9;"/>
		<polygon style="fill:#FFF0AD;" points="280.224,292.374 304.457,306.365 328.688,292.375 304.456,278.384 &#9;&#9;"/>
		<polygon style="fill:#FEAD8A;" points="159.066,250.403 134.834,264.393 159.066,278.384 183.298,264.393 &#9;&#9;"/>
		<polygon style="fill:#FFF0AD;" points="280.224,264.393 304.456,278.384 328.688,264.394 304.456,250.403 &#9;&#9;"/>
		<polygon style="fill:#FFF0AD;" points="280.225,320.356 304.457,334.346 328.688,320.356 304.457,306.365 &#9;&#9;"/>
		<polygon style="fill:#FEAD8A;" points="207.529,278.384 183.297,292.374 207.529,306.365 231.761,292.374 &#9;&#9;"/>
		<polygon style="fill:#5DE1C4;" points="328.688,236.413 304.456,222.422 280.224,236.413 304.456,250.403 &#9;&#9;"/>
		<polygon style="fill:#FFF0AD;" points="231.761,292.374 255.993,306.365 280.224,292.374 255.993,278.384 &#9;&#9;"/>
		<polygon style="fill:#FFF0AD;" points="280.224,236.413 255.993,222.422 231.761,236.412 255.993,250.403 &#9;&#9;"/>
		<polygon style="fill:#FFF0AD;" points="231.761,236.412 207.529,222.422 183.298,236.412 207.529,250.403 &#9;&#9;"/>
		<polygon style="fill:#FFF0AD;" points="231.761,264.393 255.993,278.384 280.224,264.393 255.993,250.403 &#9;&#9;"/>
		<polygon style="fill:#FFF0AD;" points="207.529,250.403 183.298,264.393 207.529,278.384 231.761,264.393 &#9;&#9;"/>
		<polygon style="fill:#FEAD8A;" points="255.993,334.346 231.761,348.337 231.761,348.337 255.993,362.327 278.349,349.42 &#10;&#9;&#9;&#9;265.712,356.716 278.349,349.42 280.225,348.337 &#9;&#9;"/>
		<polygon style="fill:#FFF0AD;" points="231.574,348.445 231.761,348.337 231.761,348.337 &#9;&#9;"/>
		<polygon style="fill:#FEAD8A;" points="280.225,348.337 304.457,362.327 328.688,348.337 304.457,334.346 &#9;&#9;"/>
		<polygon style="fill:#FEAD8A;" points="207.529,334.346 183.297,348.336 207.53,362.327 231.574,348.445 231.761,348.337 &#9;&#9;"/>
		<polygon style="fill:#5DE1C4;" points="352.919,250.403 377.151,236.413 352.92,222.422 328.688,236.413 &#9;&#9;"/>
		<polygon style="fill:#5DE1C4;" points="352.919,250.403 328.688,264.394 352.92,278.384 377.152,264.394 377.152,264.394 &#9;&#9;"/>
		<polygon style="fill:#FEAD8A;" points="159.066,306.365 134.834,320.355 159.066,334.346 183.297,320.355 &#9;&#9;"/>
		<polygon style="fill:#FFF0AD;" points="328.688,320.356 352.92,334.346 377.152,320.356 352.92,306.365 &#9;&#9;"/>
		<polygon style="fill:#FFF0AD;" points="328.688,292.375 352.92,306.365 377.152,292.375 377.152,292.375 352.92,278.384 &#9;&#9;"/>
		<polygon style="fill:#5DE1C4;" points="255.993,222.422 280.225,208.432 255.993,194.441 236.55,205.666 246.507,199.918 &#10;&#9;&#9;&#9;236.55,205.666 231.761,208.432 &#9;&#9;"/>
		<polygon style="fill:#FFF0AD;" points="231.761,208.432 207.529,194.441 183.298,208.431 207.529,222.422 &#9;&#9;"/>
		<polygon style="fill:#5DE1C4;" points="328.688,208.432 304.456,194.441 280.225,208.432 304.456,222.422 &#9;&#9;"/>
		<polygon style="fill:#FFF0AD;" points="183.298,236.412 159.066,222.422 134.834,236.412 159.066,250.403 &#9;&#9;"/>
		<polygon style="fill:#0055A3;" points="507,314.611 506.998,242.153 463.499,248.709 475.624,332.727 &#9;&#9;"/>
		<polygon style="fill:#0573CE;" points="444.248,314.611 444.25,242.153 475.624,246.733 475.624,332.727 &#9;&#9;"/>
		<polygon style="fill:#0055A3;" points="287.376,441.41 287.374,368.952 243.875,375.508 256,459.526 &#9;&#9;"/>
		<polygon style="fill:#0573CE;" points="224.624,441.41 224.626,368.952 256,373.531 256,459.526 &#9;&#9;"/>
		<polygon style="fill:#0573CE;" points="5,314.611 5.002,242.153 48.501,248.709 36.376,332.727 &#9;&#9;"/>
		<polygon style="fill:#0055A3;" points="67.752,314.611 67.75,242.153 36.376,246.733 36.376,332.727 &#9;&#9;"/>
		<polygon style="fill:#82AEE3;" points="444.248,242.152 475.622,224.037 506.996,242.152 475.624,260.268 &#9;&#9;"/>
		<polygon style="fill:#82AEE3;" points="224.624,368.951 255.998,350.836 287.372,368.951 256,387.067 &#9;&#9;"/>
		<polygon style="fill:#82AEE3;" points="67.752,242.152 36.378,224.037 5.004,242.152 36.376,260.268 &#9;&#9;"/>
		<polygon style="fill:#60B7FF;" points="170.499,166.289 134.468,246.879 98.437,207.894 116.453,197.493 116.453,119.862 &#10;&#9;&#9;&#9;152.484,99.059 152.484,176.69 &#9;&#9;"/>
		<polygon style="fill:#60B7FF;" points="341.501,166.289 377.532,246.879 413.563,207.894 395.547,197.493 395.547,119.862 &#10;&#9;&#9;&#9;359.516,99.059 359.516,176.69 &#9;&#9;"/>
		<path style="fill:#B3DAFE;" d="M284.506,148.097l-57.012,0.205v87.349h0c0,4.195,2.76,8.38,8.287,11.571&#10;&#9;&#9;&#9;c11.098,6.407,29.146,6.375,40.313-0.072c5.606-3.237,8.412-7.475,8.412-11.704h0V148.097z"/>
		<path style="fill:#C4E2FF;" d="M298.71,119.159l-85.438,0.308v81.667h0c0,6.286,4.137,12.559,12.418,17.34&#10;&#9;&#9;&#9;c16.631,9.602,43.679,9.553,60.414-0.108c8.401-4.851,12.606-11.202,12.606-17.539h0V119.159z"/>
		<polygon style="fill:#0055A3;" points="318.75,122.323 318.75,52.467 250.159,78.579 256,158.552 &#9;&#9;"/>
		<polygon style="fill:#0573CE;" points="193.25,122.323 193.25,52.467 256,77.993 256,158.552 &#9;&#9;"/>
		<polygon style="fill:#82AEE3;" points="256,16.238 193.25,52.467 256,88.695 318.75,52.467 &#9;&#9;"/>
	</g>
	<g>
		
			<line style="fill:none;stroke:#072F75;stroke-width:10;stroke-linecap:round;stroke-linejoin:round;stroke-miterlimit:10;" x1="36.376" y1="260.268" x2="36.376" y2="332.727"/>
		<path style="fill:none;stroke:#072F75;stroke-width:6;stroke-linecap:round;stroke-linejoin:round;stroke-miterlimit:10;" d="&#10;&#9;&#9;&#9;M288.375,385.465c37.02-3.68,72.46-13.72,100.89-30.13c36.65-21.16,54.98-49.06,54.98-76.95"/>
		<path style="fill:none;stroke:#072F75;stroke-width:6;stroke-linecap:round;stroke-linejoin:round;stroke-miterlimit:10;" d="&#10;&#9;&#9;&#9;M67.745,278.375c-0.01,27.9,18.32,55.79,54.97,76.96c28.43,16.41,63.88,26.45,100.91,30.13"/>
		
			<line style="fill:none;stroke:#072F75;stroke-width:6;stroke-linecap:round;stroke-linejoin:round;stroke-miterlimit:10;" x1="138.262" y1="238.393" x2="328.689" y2="348.336"/>
		
			<line style="fill:none;stroke:#072F75;stroke-width:6;stroke-linecap:round;stroke-linejoin:round;stroke-miterlimit:10;" x1="159.066" y1="222.423" x2="352.92" y2="334.345"/>
		
			<line style="fill:none;stroke:#072F75;stroke-width:6;stroke-linecap:round;stroke-linejoin:round;stroke-miterlimit:10;" x1="258.769" y1="252.007" x2="377.152" y2="320.355"/>
		
			<line style="fill:none;stroke:#072F75;stroke-width:6;stroke-linecap:round;stroke-linejoin:round;stroke-miterlimit:10;" x1="183.298" y1="208.433" x2="227.494" y2="233.95"/>
		
			<line style="fill:none;stroke:#072F75;stroke-width:6;stroke-linecap:round;stroke-linejoin:round;stroke-miterlimit:10;" x1="284.506" y1="233.942" x2="328.689" y2="208.433"/>
		
			<line style="fill:none;stroke:#072F75;stroke-width:6;stroke-linecap:round;stroke-linejoin:round;stroke-miterlimit:10;" x1="134.834" y1="320.355" x2="253.217" y2="252.007"/>
		
			<line style="fill:none;stroke:#072F75;stroke-width:6;stroke-linecap:round;stroke-linejoin:round;stroke-miterlimit:10;" x1="159.066" y1="334.345" x2="352.92" y2="222.423"/>
		
			<line style="fill:none;stroke:#072F75;stroke-width:6;stroke-linecap:round;stroke-linejoin:round;stroke-miterlimit:10;" x1="183.297" y1="348.335" x2="373.735" y2="238.386"/>
		
			<line style="fill:none;stroke:#072F75;stroke-width:6;stroke-linecap:round;stroke-linejoin:round;stroke-miterlimit:10;" x1="283.986" y1="238.585" x2="377.152" y2="292.375"/>
		
			<line style="fill:none;stroke:#072F75;stroke-width:6;stroke-linecap:round;stroke-linejoin:round;stroke-miterlimit:10;" x1="134.834" y1="264.394" x2="220.565" y2="214.898"/>
		
			<line style="fill:none;stroke:#072F75;stroke-width:6;stroke-linecap:round;stroke-linejoin:round;stroke-miterlimit:10;" x1="280.225" y1="348.336" x2="134.834" y2="264.394"/>
		
			<line style="fill:none;stroke:#072F75;stroke-width:6;stroke-linecap:round;stroke-linejoin:round;stroke-miterlimit:10;" x1="291.242" y1="214.794" x2="377.152" y2="264.394"/>
		
			<line style="fill:none;stroke:#072F75;stroke-width:6;stroke-linecap:round;stroke-linejoin:round;stroke-miterlimit:10;" x1="134.834" y1="292.375" x2="227.957" y2="238.61"/>
		
			<line style="fill:none;stroke:#072F75;stroke-width:6;stroke-linecap:round;stroke-linejoin:round;stroke-miterlimit:10;" x1="231.761" y1="348.336" x2="377.152" y2="264.394"/>
		
			<line style="fill:none;stroke:#072F75;stroke-width:6;stroke-linecap:round;stroke-linejoin:round;stroke-miterlimit:10;" x1="231.761" y1="348.336" x2="134.834" y2="292.375"/>
		
			<line style="fill:none;stroke:#072F75;stroke-width:6;stroke-linecap:round;stroke-linejoin:round;stroke-miterlimit:10;" x1="280.225" y1="348.336" x2="377.152" y2="292.375"/>
		
			<line style="fill:none;stroke:#072F75;stroke-width:10;stroke-linecap:round;stroke-linejoin:round;stroke-miterlimit:10;" x1="401.626" y1="375.449" x2="507" y2="314.611"/>
		
			<line style="fill:none;stroke:#072F75;stroke-width:10;stroke-linecap:round;stroke-linejoin:round;stroke-miterlimit:10;" x1="287.377" y1="441.411" x2="375.661" y2="390.44"/>
		
			<line style="fill:none;stroke:#072F75;stroke-width:10;stroke-linecap:round;stroke-linejoin:round;stroke-miterlimit:10;" x1="110.374" y1="375.449" x2="5" y2="314.611"/>
		
			<line style="fill:none;stroke:#072F75;stroke-width:10;stroke-linecap:round;stroke-linejoin:round;stroke-miterlimit:10;" x1="224.623" y1="441.411" x2="136.339" y2="390.44"/>
		
			<polyline style="fill:none;stroke:#072F75;stroke-width:10;stroke-linecap:round;stroke-linejoin:round;stroke-miterlimit:10;" points="&#10;&#9;&#9;&#9;224.623,441.411 256,459.526 287.377,441.411 &#9;&#9;"/>
		
			<polyline style="fill:none;stroke:#072F75;stroke-width:10;stroke-linecap:round;stroke-linejoin:round;stroke-miterlimit:10;" points="&#10;&#9;&#9;&#9;67.751,279.46 67.75,242.153 67.75,242.153 67.752,242.152 36.378,224.037 5.004,242.152 5.008,242.154 5.002,242.153 5,350.84 &#10;&#9;&#9;&#9;256,495.762 507,350.84 506.999,314.605 &#9;&#9;"/>
		
			<polyline style="fill:none;stroke:#072F75;stroke-width:10;stroke-linecap:round;stroke-linejoin:round;stroke-miterlimit:10;" points="&#10;&#9;&#9;&#9;5.004,242.152 36.376,260.268 67.752,242.152 &#9;&#9;"/>
		
			<polyline style="fill:none;stroke:#072F75;stroke-width:10;stroke-linecap:round;stroke-linejoin:round;stroke-miterlimit:10;" points="&#10;&#9;&#9;&#9;507,314.611 506.998,242.153 506.998,242.153 507,242.152 475.626,224.037 444.252,242.152 444.256,242.154 444.25,242.153 &#10;&#9;&#9;&#9;444.249,278.378 &#9;&#9;"/>
		
			<line style="fill:none;stroke:#072F75;stroke-width:10;stroke-linecap:round;stroke-linejoin:round;stroke-miterlimit:10;" x1="444.248" y1="314.611" x2="475.624" y2="332.727"/>
		
			<polyline style="fill:none;stroke:#072F75;stroke-width:10;stroke-linecap:round;stroke-linejoin:round;stroke-miterlimit:10;" points="&#10;&#9;&#9;&#9;444.252,242.152 475.624,260.268 507,242.152 &#9;&#9;"/>
		
			<line style="fill:none;stroke:#072F75;stroke-width:10;stroke-linecap:round;stroke-linejoin:round;stroke-miterlimit:10;" x1="475.624" y1="260.268" x2="475.624" y2="332.727"/>
		
			<polyline style="fill:none;stroke:#072F75;stroke-width:10;stroke-linecap:round;stroke-linejoin:round;stroke-miterlimit:10;" points="&#10;&#9;&#9;&#9;287.376,441.41 287.374,368.952 287.374,368.952 287.376,368.951 256.002,350.836 224.628,368.951 224.632,368.953 &#10;&#9;&#9;&#9;224.626,368.952 224.624,441.41 &#9;&#9;"/>
		
			<polyline style="fill:none;stroke:#072F75;stroke-width:10;stroke-linecap:round;stroke-linejoin:round;stroke-miterlimit:10;" points="&#10;&#9;&#9;&#9;224.628,368.951 256,387.067 287.376,368.951 &#9;&#9;"/>
		
			<line style="fill:none;stroke:#072F75;stroke-width:10;stroke-linecap:round;stroke-linejoin:round;stroke-miterlimit:10;" x1="256" y1="387.067" x2="256" y2="459.526"/>
		
			<line style="fill:none;stroke:#072F75;stroke-width:10;stroke-linecap:round;stroke-linejoin:round;stroke-miterlimit:10;" x1="256" y1="459.526" x2="256" y2="494.762"/>
		
			<line style="fill:none;stroke:#072F75;stroke-width:10;stroke-linecap:round;stroke-linejoin:round;stroke-miterlimit:10;" x1="36.376" y1="332.727" x2="67.752" y2="314.611"/>
		
			<polyline style="fill:none;stroke:#072F75;stroke-width:6;stroke-linecap:round;stroke-linejoin:round;stroke-miterlimit:10;" points="&#10;&#9;&#9;&#9;127.405,240.705 110.605,250.405 134.835,264.395 110.605,278.385 134.835,292.375 110.605,306.365 207.525,362.325 &#10;&#9;&#9;&#9;231.765,348.335 245.045,356.005 &#9;&#9;"/>
		
			<polyline style="fill:none;stroke:#072F75;stroke-width:6;stroke-linecap:round;stroke-linejoin:round;stroke-miterlimit:10;" points="&#10;&#9;&#9;&#9;142.125,232.205 207.525,194.445 212.275,197.185 &#9;&#9;"/>
		
			<polyline style="fill:none;stroke:#072F75;stroke-width:6;stroke-linecap:round;stroke-linejoin:round;stroke-miterlimit:10;" points="&#10;&#9;&#9;&#9;384.595,240.715 401.385,250.405 377.155,264.395 401.385,278.385 377.155,292.375 401.385,306.365 304.455,362.325 &#10;&#9;&#9;&#9;280.225,348.335 266.945,356.005 &#9;&#9;"/>
		
			<polyline style="fill:none;stroke:#072F75;stroke-width:6;stroke-linecap:round;stroke-linejoin:round;stroke-miterlimit:10;" points="&#10;&#9;&#9;&#9;299.715,197.185 304.455,194.445 369.875,232.215 &#9;&#9;"/>
		
			<polygon style="fill:none;stroke:#072F75;stroke-width:10;stroke-linecap:round;stroke-linejoin:round;stroke-miterlimit:10;" points="&#10;&#9;&#9;&#9;256,16.238 193.25,52.467 193.25,122.323 256,158.552 318.75,122.323 318.75,52.467 &#9;&#9;"/>
		
			<line style="fill:none;stroke:#072F75;stroke-width:6;stroke-linecap:round;stroke-linejoin:round;stroke-miterlimit:10;" x1="256" y1="88.695" x2="256" y2="158.552"/>
		
			<polyline style="fill:none;stroke:#072F75;stroke-width:6;stroke-linecap:round;stroke-linejoin:round;stroke-miterlimit:10;" points="&#10;&#9;&#9;&#9;193.25,52.467 256,88.695 318.75,52.467 &#9;&#9;"/>
		
			<polygon style="fill:none;stroke:#072F75;stroke-width:10;stroke-linecap:round;stroke-linejoin:round;stroke-miterlimit:10;" points="&#10;&#9;&#9;&#9;170.499,166.289 134.468,246.879 98.437,207.894 116.453,197.493 116.453,119.862 152.484,99.059 152.484,176.69 &#9;&#9;"/>
		
			<polygon style="fill:none;stroke:#072F75;stroke-width:10;stroke-linecap:round;stroke-linejoin:round;stroke-miterlimit:10;" points="&#10;&#9;&#9;&#9;341.501,166.289 377.532,246.879 413.563,207.894 395.547,197.493 395.547,119.862 359.516,99.059 359.516,176.69 &#9;&#9;"/>
		<path style="fill:none;stroke:#072F75;stroke-width:10;stroke-linecap:round;stroke-linejoin:round;stroke-miterlimit:10;" d="&#10;&#9;&#9;&#9;M227.494,220.578v15.073h0c0,4.195,2.76,8.38,8.286,11.571c11.098,6.407,29.146,6.375,40.313-0.072&#10;&#9;&#9;&#9;c5.606-3.237,8.412-7.475,8.412-11.704h0v-15.078"/>
		<path style="fill:none;stroke:#072F75;stroke-width:10;stroke-linecap:round;stroke-linejoin:round;stroke-miterlimit:10;" d="&#10;&#9;&#9;&#9;M213.272,135.037v66.096h0c0,6.286,4.137,12.559,12.418,17.34c16.631,9.602,43.679,9.553,60.414-0.108&#10;&#9;&#9;&#9;c8.401-4.851,12.606-11.202,12.606-17.539h0v-65.779"/>
		<path style="fill:none;stroke:#072F75;stroke-width:10;stroke-linecap:round;stroke-linejoin:round;stroke-miterlimit:10;" d="&#10;&#9;&#9;&#9;M288.375,413.455c37.021-3.682,72.468-13.73,100.898-30.144c36.647-21.158,54.977-49.051,54.977-76.948l0.001-27.982l-0.006-0.002&#10;&#9;&#9;&#9;c-0.002-22.421-11.845-44.842-35.529-63.766"/>
		<path style="fill:none;stroke:#072F75;stroke-width:10;stroke-linecap:round;stroke-linejoin:round;stroke-miterlimit:10;" d="&#10;&#9;&#9;&#9;M103.279,214.606c-23.688,18.925-35.534,41.348-35.537,63.771l-0.007-0.002l-0.003,27.885l0.011,0.003&#10;&#9;&#9;&#9;c-0.047,27.924,18.278,55.863,54.972,77.049c28.434,16.415,63.885,26.463,100.91,30.144"/>
		<path style="fill:none;stroke:#072F75;stroke-width:10;stroke-linecap:round;stroke-linejoin:round;stroke-miterlimit:10;" d="&#10;&#9;&#9;&#9;M212.272,172.628c-16.734,2.278-33.023,5.885-48.349,10.819"/>
		<path style="fill:none;stroke:#072F75;stroke-width:10;stroke-linecap:round;stroke-linejoin:round;stroke-miterlimit:10;" d="&#10;&#9;&#9;&#9;M348.079,183.453c-15.332-4.937-31.628-8.546-48.369-10.825"/>
	</g>
</g>
<g>
</g>
<g>
</g>
<g>
</g>
<g>
</g>
<g>
</g>
<g>
</g>
<g>
</g>
<g>
</g>
<g>
</g>
<g>
</g>
<g>
</g>
<g>
</g>
<g>
</g>
<g>
</g>
<g>
</g>
</svg>